<svg xmlns="http://www.w3.org/2000/svg" width="83.35mm" height="51.44mm" viewBox="0 0 236.26 145.81"><g id="Layer_4" data-name="Layer 4"><path id="Path_49" data-name="Path 49" d="M41,11C2.58,36.58,6.23,57.34,13.53,87.33c3.45,14.17,23,26.53,45.6,35.9,25.21,10.48,54.15,17.21,68.41,18.54,10.35,1,30.2,4.61,49.29,2.82,11.45-1.08,22.62-4.75,31.31-10.36,14.63-9.44,21.38-19.57,20.55-59.22-.51-24.38-24.83-36.33-46.39-48.62-22.83-13-52-19.71-79.1-21.23C74.58,3.55,54.56,2,41,11Z" style="fill:#eed80f"/><text transform="matrix(0.96, 0.29, -0.29, 0.96, 39.95, 62.17)" style="isolation:isolate;font-size:39.23968505859375px;fill:#fff;font-family:Cambay-Bold, Cambay;font-weight:700">Nyt look!</text></g></svg>
